<?xml version="1.0" encoding="UTF-8"?>
<svg width="200px" height="40px" viewBox="0 0 2350 458" version="1.1" xmlns="http://www.w3.org/2000/svg" xmlns:xlink="http://www.w3.org/1999/xlink">
    <title>Logo</title>
    <g id="Logo" stroke="none" stroke-width="1" fill="none" fill-rule="evenodd">
        <g id="Group" transform="translate(49.000000, 49.000000)">
            <path d="M951.476005,53.2255738 L1069.298,319 L1033.75825,319 L1004.39933,251.208262 L992.423976,222.704918 L946.454083,116.395148 L902.029397,222.704918 L890.054047,251.208262 L861.467727,319 L826.700581,319 L944.522575,53.2255738 L951.476005,53.2255738 Z M536.90413,55.9218361 L536.904,152.796836 L624.821721,55.9218361 L663.065582,55.9218361 L553.355922,183.801705 L667.3149,319 L628.684738,319 L536.904,216.710836 L536.90413,319 L506,319 L506,55.9218361 L536.90413,55.9218361 Z M1306.59255,55.9218361 C1336.20901,55.9218361 1359.3871,62.6624918 1376.12684,76.1438033 C1392.86658,89.6251148 1401.23645,108.434754 1401.23645,132.572721 C1401.23645,167.238951 1385.26931,192.275672 1353.33504,207.682885 L1423.25564,319 L1386.94329,319 C1356.47044,270.073329 1333.6158,233.378327 1318.37938,208.914991 C1318.37914,208.759083 1318.37891,208.595208 1318.3787,208.42422 L1318.37807,207.890773 C1318.37797,207.798595 1318.37788,207.704852 1318.37778,207.609651 L1318.37724,207.021819 C1318.37715,206.921218 1318.37707,206.819373 1318.37698,206.716392 L1318.3761,205.432917 C1318.37603,205.322556 1318.37596,205.211486 1318.3759,205.099815 L1318.37509,203.392992 C1318.37504,203.277978 1318.375,203.162897 1318.37495,203.047857 L1318.374,199.408415 C1318.37398,199.307198 1318.37397,199.207196 1318.37395,199.108518 L1318.3737,195.748875 L1318.3737,195.748875 C1352.75524,183.149831 1369.94601,162.604687 1369.94601,134.113443 C1369.94601,101.501508 1348.82819,85.195541 1306.59255,85.195541 L1255.56562,85.195541 L1255.56562,319 L1224.66149,319 L1224.66149,55.9218361 L1306.59255,55.9218361 Z M1617.21417,55.9218361 L1706.06354,253.134164 L1794.52661,55.9218361 L1802.25265,55.9218361 L1857.88008,319 L1826.20335,319 L1788.34579,133.728262 L1710.69916,313.222295 L1701.04162,313.222295 L1621.07719,134.498623 L1585.53744,319 L1553.8607,319 L1609.48814,55.9218361 L1617.21417,55.9218361 Z M2119.17801,52 L2237,317.774426 L2201.46025,317.774426 L2172.10133,249.982689 L2160.12598,221.479344 L2114.15608,115.169574 L2069.7314,221.479344 L2057.75605,249.982689 L2029.16973,317.774426 L1994.40258,317.774426 L2112.22458,52 L2119.17801,52 Z M947.437397,222.704918 C955.922848,222.704918 962.801666,229.563769 962.801666,238.02459 C962.801666,246.485411 955.922848,253.344262 947.437397,253.344262 C938.951945,253.344262 932.073128,246.485411 932.073128,238.02459 C932.073128,229.563769 938.951945,222.704918 947.437397,222.704918 Z M2115.12184,222.704918 C2123.60729,222.704918 2130.48611,229.563769 2130.48611,238.02459 C2130.48611,246.485411 2123.60729,253.344262 2115.12184,253.344262 C2106.63639,253.344262 2099.75757,246.485411 2099.75757,238.02459 C2099.75757,229.563769 2106.63639,222.704918 2115.12184,222.704918 Z" id="Combined-Shape" fill="#0C0B4B" fill-rule="nonzero"></path>
            <g id="Group-Copy-4">
                <path d="M316.650088,0 L422,182.728667 L316.650088,366 L105.786676,366 L0,182.728667 L105.786676,0 L316.650088,0 Z M306.931451,16.506731 L115.429462,16.506731 L19.3560905,182.4573 L115.429462,348.900708 L306.931451,348.900708 L402.608162,182.4573 L306.931451,16.506731 Z" id="Combined-Shape" fill="#09AAE2"></path>
                <path d="M125.807184,0 L125.806544,116.601 L203.466544,71.803 L203.466906,0 L219.584962,0 L219.584544,62.506 L309.116065,10.8606892 L317.175093,24.8071623 L228.075544,76.203 L306.621544,121.512 L307.112544,121.512 L359.348765,91.3806892 L367.407793,105.327162 L322.985544,130.952 L416.813981,185.076689 L408.754954,199.023162 L310.431544,142.306 L310.431544,229.802 L367.407793,262.668689 L359.348765,276.615162 L310.431544,248.397 L310.432184,366 L294.314128,366 L294.313544,249.142 L219.584544,292.249 L219.584962,366 L203.466906,366 L203.466544,301.547 L102.025406,360.063162 L93.9663779,346.116689 L193.661544,288.607 L121.670544,247.079 L65.3934612,279.543162 L57.3344334,265.596689 L105.552544,237.781 L10.4455443,182.919163 L18.504572,168.97269 L109.688544,221.571 L109.688544,132.6 L57.3344334,102.399162 L65.3934612,88.4526892 L109.688544,114.004 L109.689128,0 L125.807184,0 Z M203.466544,199.896 L137.789544,237.781 L203.466544,275.667 L203.466544,199.896 Z M219.584544,195.993 L219.584544,273.653 L286.899544,234.823 L219.584544,195.993 Z M125.806544,141.897 L125.806544,226.098 L198.790544,183.997 L125.806544,141.897 Z M294.313544,147.491 L231.026544,183.998 L294.313544,220.504 L294.313544,147.491 Z M219.584544,89.901 L219.584544,172.002 L290.748544,130.952 L219.584544,89.901 Z M203.466544,90.399 L136.116544,129.249 L203.466544,168.099 L203.466544,90.399 Z" id="Combined-Shape" fill="#09AAE2"></path>
                <path d="M195.264301,237.920922 L290.68969,272.604245 L290.68969,272.604245 L294.314128,256.147867 L249.285079,229.226955 C243.551237,225.79894 241.681995,218.371787 245.11001,212.637945 C246.178283,210.851107 247.689646,209.370227 249.497878,208.338578 L360.442169,145.041632 L360.442169,145.041632 L352.360581,130.988654 L193.798328,205.371948 C184.978297,209.509522 181.182415,220.013736 185.319988,228.833767 C187.30212,233.059061 190.87793,236.326651 195.264301,237.920922 Z" id="Path-4" fill="#0C0B4B" transform="translate(257.892971, 201.796450) scale(1, -1) translate(-257.892971, -201.796450) "></path>
                <path d="M98.4130543,201.997506 L187.702941,237.7048 L187.702941,237.7048 L199.954897,225.981969 L147.172849,194.629073 C141.429292,191.217361 139.538958,183.795549 142.95067,178.051991 C144.023368,176.246122 145.547826,174.750706 147.37399,173.712935 L263.205364,107.888405 L263.205364,107.888405 L252.990225,90.4351238 L96.9576599,169.899728 C88.2763502,174.320964 84.8228784,184.942676 89.2441146,193.623986 C91.1845695,197.434162 94.4429036,200.409831 98.4130543,201.997506 Z" id="Path-4" fill="#0C0B4B" transform="translate(162.749641, 164.069962) scale(-1, 1) translate(-162.749641, -164.069962) "></path>
            </g>
        </g>
    </g>
</svg>